<mxfile host="app.diagrams.net" modified="2022-08-19T02:59:03.235Z" agent="5.0 (Windows NT 10.0; Win64; x64) AppleWebKit/537.36 (KHTML, like Gecko) Chrome/104.0.5112.81 Safari/537.36 Edg/104.0.1293.54" etag="C9MeBEjGpTDfoAodE4BQ" version="20.2.5" type="github">
  <diagram id="qrfTiBArkUIrSwtpsQKL" name="第 1 页">
    <mxGraphModel dx="1038" dy="579" grid="0" gridSize="10" guides="1" tooltips="1" connect="1" arrows="1" fold="1" page="1" pageScale="1" pageWidth="3300" pageHeight="4681" math="0" shadow="0">
      <root>
        <mxCell id="0" />
        <mxCell id="1" parent="0" />
        <mxCell id="9zuN3J3uwjTU6tEBlCrQ-1" value="" style="rounded=0;whiteSpace=wrap;html=1;fontSize=16;comic=1;fillColor=#fff2cc;strokeColor=#d6b656;" vertex="1" parent="1">
          <mxGeometry x="503" y="229" width="120" height="60" as="geometry" />
        </mxCell>
        <mxCell id="9zuN3J3uwjTU6tEBlCrQ-2" value="颜色太深" style="rounded=1;whiteSpace=wrap;html=1;strokeWidth=2;fillWeight=4;hachureGap=8;hachureAngle=45;fillColor=#fff2cc;sketch=1;comic=1;fontSize=16;strokeColor=#d6b656;" vertex="1" parent="1">
          <mxGeometry x="298" y="269" width="120" height="60" as="geometry" />
        </mxCell>
      </root>
    </mxGraphModel>
  </diagram>
</mxfile>
